<svg xmlns="http://www.w3.org/2000/svg" width="1600" height="980" viewBox="0 0 1600 980">
<defs>
<linearGradient id="bg" x1="0%" y1="0%" x2="100%" y2="100%">
<stop offset="0%" stop-color="#f8fbff"/>
<stop offset="45%" stop-color="#f4f7ff"/>
<stop offset="100%" stop-color="#fff8ef"/>
</linearGradient>
<linearGradient id="titlegrad" x1="0%" y1="0%" x2="100%" y2="0%">
<stop offset="0%" stop-color="#0f766e"/>
<stop offset="50%" stop-color="#2563eb"/>
<stop offset="100%" stop-color="#7c3aed"/>
</linearGradient>
<linearGradient id="cardgrad" x1="0%" y1="0%" x2="100%" y2="100%">
<stop offset="0%" stop-color="#ffffff" stop-opacity="0.98"/>
<stop offset="100%" stop-color="#f8fafc" stop-opacity="0.92"/>
</linearGradient>
<linearGradient id="elitegrad" x1="0%" y1="0%" x2="100%" y2="0%">
<stop offset="0%" stop-color="#14b8a6"/>
<stop offset="100%" stop-color="#0f766e"/>
</linearGradient>
<linearGradient id="stronggrad" x1="0%" y1="0%" x2="100%" y2="0%">
<stop offset="0%" stop-color="#60a5fa"/>
<stop offset="100%" stop-color="#2563eb"/>
</linearGradient>
<linearGradient id="capablegrad" x1="0%" y1="0%" x2="100%" y2="0%">
<stop offset="0%" stop-color="#a78bfa"/>
<stop offset="100%" stop-color="#7c3aed"/>
</linearGradient>
<linearGradient id="emerginggrad" x1="0%" y1="0%" x2="100%" y2="0%">
<stop offset="0%" stop-color="#fb923c"/>
<stop offset="100%" stop-color="#ea580c"/>
</linearGradient>
<filter id="shadow" x="-30%" y="-30%" width="160%" height="160%">
<feDropShadow dx="0" dy="24" stdDeviation="24" flood-color="#94a3b8" flood-opacity="0.18"/>
</filter>
<filter id="softblur" x="-50%" y="-50%" width="200%" height="200%">
<feGaussianBlur stdDeviation="36"/>
</filter>
</defs>
<rect width="1600" height="980" fill="url(#bg)"/>
<circle cx="220" cy="140" r="150" fill="#93c5fd" opacity="0.28" filter="url(#softblur)"/>
<circle cx="1420" cy="180" r="170" fill="#c4b5fd" opacity="0.22" filter="url(#softblur)"/>
<circle cx="1480" cy="850" r="190" fill="#fdba74" opacity="0.18" filter="url(#softblur)"/>
<circle cx="160" cy="860" r="120" fill="#2dd4bf" opacity="0.12" filter="url(#softblur)"/>
<rect x="40" y="40" width="1520" height="900" rx="40" fill="url(#cardgrad)" stroke="#dbe4f0" stroke-width="1" filter="url(#shadow)"/>
<text x="78" y="114" font-family="'Space Grotesk','Avenir Next','Inter','Segoe UI',sans-serif" font-size="28" font-weight="700" fill="#0f172a">AutoCodeBenchmark Fork Snapshot</text>
<text x="78" y="176" font-family="'Space Grotesk','Avenir Next','Inter','Segoe UI',sans-serif" font-size="58" font-weight="800" fill="url(#titlegrad)">GPT-5.4 Medium language leaderboard</text>
<text x="78" y="220" font-family="'DM Sans','Inter','Segoe UI',sans-serif" font-size="22" font-weight="400" fill="#475569">Latest verified local run in this fork. All tracked languages are folded into one visual.</text>
<rect x="78" y="262" width="260" height="88" rx="24" fill="#ffffff" stroke="#dbe4f0" stroke-width="1"/>
<text x="100" y="296" font-family="'Space Grotesk','Avenir Next','Inter','Segoe UI',sans-serif" font-size="15" font-weight="700" fill="#64748b">Overall</text>
<text x="100" y="326" font-family="'Space Grotesk','Avenir Next','Inter','Segoe UI',sans-serif" font-size="22" font-weight="800" fill="#0f766e">53.3% on ACB-Full</text>
<rect x="356" y="262" width="260" height="88" rx="24" fill="#ffffff" stroke="#dbe4f0" stroke-width="1"/>
<text x="378" y="296" font-family="'Space Grotesk','Avenir Next','Inter','Segoe UI',sans-serif" font-size="15" font-weight="700" fill="#64748b">Best fit</text>
<text x="378" y="326" font-family="'Space Grotesk','Avenir Next','Inter','Segoe UI',sans-serif" font-size="22" font-weight="800" fill="#2563eb">elixir and kotlin</text>
<rect x="634" y="262" width="290" height="88" rx="24" fill="#ffffff" stroke="#dbe4f0" stroke-width="1"/>
<text x="656" y="296" font-family="'Space Grotesk','Avenir Next','Inter','Segoe UI',sans-serif" font-size="15" font-weight="700" fill="#64748b">Added languages</text>
<text x="656" y="326" font-family="'Space Grotesk','Avenir Next','Inter','Segoe UI',sans-serif" font-size="22" font-weight="800" fill="#7c3aed">3 tracked extensions</text>
<rect x="944" y="262" width="290" height="88" rx="24" fill="#ffffff" stroke="#dbe4f0" stroke-width="1"/>
<text x="966" y="296" font-family="'Space Grotesk','Avenir Next','Inter','Segoe UI',sans-serif" font-size="15" font-weight="700" fill="#64748b">Data files</text>
<text x="966" y="326" font-family="'Space Grotesk','Avenir Next','Inter','Segoe UI',sans-serif" font-size="22" font-weight="800" fill="#ea580c">JSON, CSV, YAML</text>
<text x="78" y="402" font-family="'Space Grotesk','Avenir Next','Inter','Segoe UI',sans-serif" font-size="30" font-weight="800" fill="#0f172a">Top language tracks in this fork</text>
<text x="78" y="465" font-family="'Space Grotesk','Avenir Next','Inter','Segoe UI',sans-serif" font-size="17" font-weight="700" fill="#0f172a">elixir</text>
<rect x="210" y="448" width="70" height="22" rx="11" fill="#dbeafe"/>
<text x="245.0" y="464" font-family="'Space Grotesk','Avenir Next','Inter','Segoe UI',sans-serif" font-size="11" font-weight="800" fill="#1d4ed8" text-anchor="middle">FULL</text>
<rect x="330" y="444" width="530" height="32" rx="16" fill="#e2e8f0"/>
<rect x="330" y="444" width="530" height="32" rx="16" fill="url(#elitegrad)"/>
<text x="878" y="467" font-family="'Space Grotesk','Avenir Next','Inter','Segoe UI',sans-serif" font-size="22" font-weight="800" fill="#14b8a6">87.4%</text>
<text x="78" y="503" font-family="'Space Grotesk','Avenir Next','Inter','Segoe UI',sans-serif" font-size="17" font-weight="700" fill="#0f172a">kotlin</text>
<rect x="210" y="486" width="70" height="22" rx="11" fill="#dbeafe"/>
<text x="245.0" y="502" font-family="'Space Grotesk','Avenir Next','Inter','Segoe UI',sans-serif" font-size="11" font-weight="800" fill="#1d4ed8" text-anchor="middle">FULL</text>
<rect x="330" y="482" width="530" height="32" rx="16" fill="#e2e8f0"/>
<rect x="330" y="482" width="463" height="32" rx="16" fill="url(#elitegrad)"/>
<text x="878" y="505" font-family="'Space Grotesk','Avenir Next','Inter','Segoe UI',sans-serif" font-size="22" font-weight="800" fill="#14b8a6">76.5%</text>
<text x="78" y="541" font-family="'Space Grotesk','Avenir Next','Inter','Segoe UI',sans-serif" font-size="17" font-weight="700" fill="#0f172a">csharp</text>
<rect x="210" y="524" width="70" height="22" rx="11" fill="#dbeafe"/>
<text x="245.0" y="540" font-family="'Space Grotesk','Avenir Next','Inter','Segoe UI',sans-serif" font-size="11" font-weight="800" fill="#1d4ed8" text-anchor="middle">FULL</text>
<rect x="330" y="520" width="530" height="32" rx="16" fill="#e2e8f0"/>
<rect x="330" y="520" width="439" height="32" rx="16" fill="url(#elitegrad)"/>
<text x="878" y="543" font-family="'Space Grotesk','Avenir Next','Inter','Segoe UI',sans-serif" font-size="22" font-weight="800" fill="#14b8a6">72.4%</text>
<text x="78" y="579" font-family="'Space Grotesk','Avenir Next','Inter','Segoe UI',sans-serif" font-size="17" font-weight="700" fill="#0f172a">ruby</text>
<rect x="210" y="562" width="70" height="22" rx="11" fill="#dbeafe"/>
<text x="245.0" y="578" font-family="'Space Grotesk','Avenir Next','Inter','Segoe UI',sans-serif" font-size="11" font-weight="800" fill="#1d4ed8" text-anchor="middle">FULL</text>
<rect x="330" y="558" width="530" height="32" rx="16" fill="#e2e8f0"/>
<rect x="330" y="558" width="382" height="32" rx="16" fill="url(#stronggrad)"/>
<text x="878" y="581" font-family="'Space Grotesk','Avenir Next','Inter','Segoe UI',sans-serif" font-size="22" font-weight="800" fill="#3b82f6">63.0%</text>
<text x="78" y="617" font-family="'Space Grotesk','Avenir Next','Inter','Segoe UI',sans-serif" font-size="17" font-weight="700" fill="#0f172a">julia</text>
<rect x="210" y="600" width="70" height="22" rx="11" fill="#dbeafe"/>
<text x="245.0" y="616" font-family="'Space Grotesk','Avenir Next','Inter','Segoe UI',sans-serif" font-size="11" font-weight="800" fill="#1d4ed8" text-anchor="middle">FULL</text>
<rect x="330" y="596" width="530" height="32" rx="16" fill="#e2e8f0"/>
<rect x="330" y="596" width="345" height="32" rx="16" fill="url(#stronggrad)"/>
<text x="878" y="619" font-family="'Space Grotesk','Avenir Next','Inter','Segoe UI',sans-serif" font-size="22" font-weight="800" fill="#3b82f6">57.0%</text>
<text x="78" y="655" font-family="'Space Grotesk','Avenir Next','Inter','Segoe UI',sans-serif" font-size="17" font-weight="700" fill="#0f172a">dart</text>
<rect x="210" y="638" width="70" height="22" rx="11" fill="#dbeafe"/>
<text x="245.0" y="654" font-family="'Space Grotesk','Avenir Next','Inter','Segoe UI',sans-serif" font-size="11" font-weight="800" fill="#1d4ed8" text-anchor="middle">FULL</text>
<rect x="330" y="634" width="530" height="32" rx="16" fill="#e2e8f0"/>
<rect x="330" y="634" width="342" height="32" rx="16" fill="url(#stronggrad)"/>
<text x="878" y="657" font-family="'Space Grotesk','Avenir Next','Inter','Segoe UI',sans-serif" font-size="22" font-weight="800" fill="#3b82f6">56.5%</text>
<text x="78" y="693" font-family="'Space Grotesk','Avenir Next','Inter','Segoe UI',sans-serif" font-size="17" font-weight="700" fill="#0f172a">r</text>
<rect x="210" y="676" width="70" height="22" rx="11" fill="#dbeafe"/>
<text x="245.0" y="692" font-family="'Space Grotesk','Avenir Next','Inter','Segoe UI',sans-serif" font-size="11" font-weight="800" fill="#1d4ed8" text-anchor="middle">FULL</text>
<rect x="330" y="672" width="530" height="32" rx="16" fill="#e2e8f0"/>
<rect x="330" y="672" width="330" height="32" rx="16" fill="url(#capablegrad)"/>
<text x="878" y="695" font-family="'Space Grotesk','Avenir Next','Inter','Segoe UI',sans-serif" font-size="22" font-weight="800" fill="#8b5cf6">54.5%</text>
<text x="78" y="731" font-family="'Space Grotesk','Avenir Next','Inter','Segoe UI',sans-serif" font-size="17" font-weight="700" fill="#0f172a">typescript_effect</text>
<rect x="210" y="714" width="102" height="22" rx="11" fill="#ede9fe"/>
<text x="261.0" y="730" font-family="'Space Grotesk','Avenir Next','Inter','Segoe UI',sans-serif" font-size="11" font-weight="800" fill="#6d28d9" text-anchor="middle">SLICE</text>
<rect x="330" y="710" width="530" height="32" rx="16" fill="#e2e8f0"/>
<rect x="330" y="710" width="325" height="32" rx="16" fill="url(#capablegrad)"/>
<text x="878" y="733" font-family="'Space Grotesk','Avenir Next','Inter','Segoe UI',sans-serif" font-size="22" font-weight="800" fill="#8b5cf6">53.6%</text>
<text x="78" y="769" font-family="'Space Grotesk','Avenir Next','Inter','Segoe UI',sans-serif" font-size="17" font-weight="700" fill="#0f172a">java</text>
<rect x="210" y="752" width="70" height="22" rx="11" fill="#dbeafe"/>
<text x="245.0" y="768" font-family="'Space Grotesk','Avenir Next','Inter','Segoe UI',sans-serif" font-size="11" font-weight="800" fill="#1d4ed8" text-anchor="middle">FULL</text>
<rect x="330" y="748" width="530" height="32" rx="16" fill="#e2e8f0"/>
<rect x="330" y="748" width="309" height="32" rx="16" fill="url(#capablegrad)"/>
<text x="878" y="771" font-family="'Space Grotesk','Avenir Next','Inter','Segoe UI',sans-serif" font-size="22" font-weight="800" fill="#8b5cf6">51.1%</text>
<text x="78" y="807" font-family="'Space Grotesk','Avenir Next','Inter','Segoe UI',sans-serif" font-size="17" font-weight="700" fill="#0f172a">racket</text>
<rect x="210" y="790" width="70" height="22" rx="11" fill="#dbeafe"/>
<text x="245.0" y="806" font-family="'Space Grotesk','Avenir Next','Inter','Segoe UI',sans-serif" font-size="11" font-weight="800" fill="#1d4ed8" text-anchor="middle">FULL</text>
<rect x="330" y="786" width="530" height="32" rx="16" fill="#e2e8f0"/>
<rect x="330" y="786" width="309" height="32" rx="16" fill="url(#capablegrad)"/>
<text x="878" y="809" font-family="'Space Grotesk','Avenir Next','Inter','Segoe UI',sans-serif" font-size="22" font-weight="800" fill="#8b5cf6">51.0%</text>
<text x="78" y="845" font-family="'Space Grotesk','Avenir Next','Inter','Segoe UI',sans-serif" font-size="17" font-weight="700" fill="#0f172a">scala</text>
<rect x="210" y="828" width="70" height="22" rx="11" fill="#dbeafe"/>
<text x="245.0" y="844" font-family="'Space Grotesk','Avenir Next','Inter','Segoe UI',sans-serif" font-size="11" font-weight="800" fill="#1d4ed8" text-anchor="middle">FULL</text>
<rect x="330" y="824" width="530" height="32" rx="16" fill="#e2e8f0"/>
<rect x="330" y="824" width="308" height="32" rx="16" fill="url(#capablegrad)"/>
<text x="878" y="847" font-family="'Space Grotesk','Avenir Next','Inter','Segoe UI',sans-serif" font-size="22" font-weight="800" fill="#8b5cf6">50.8%</text>
<text x="78" y="883" font-family="'Space Grotesk','Avenir Next','Inter','Segoe UI',sans-serif" font-size="17" font-weight="700" fill="#0f172a">shell</text>
<rect x="210" y="866" width="70" height="22" rx="11" fill="#dbeafe"/>
<text x="245.0" y="882" font-family="'Space Grotesk','Avenir Next','Inter','Segoe UI',sans-serif" font-size="11" font-weight="800" fill="#1d4ed8" text-anchor="middle">FULL</text>
<rect x="330" y="862" width="530" height="32" rx="16" fill="#e2e8f0"/>
<rect x="330" y="862" width="306" height="32" rx="16" fill="url(#capablegrad)"/>
<text x="878" y="885" font-family="'Space Grotesk','Avenir Next','Inter','Segoe UI',sans-serif" font-size="22" font-weight="800" fill="#8b5cf6">50.5%</text>
<rect x="970" y="402" width="552" height="430" rx="30" fill="#ffffff" stroke="#e2e8f0" stroke-width="1"/>
<text x="1002" y="454" font-family="'Space Grotesk','Avenir Next','Inter','Segoe UI',sans-serif" font-size="30" font-weight="800" fill="#0f172a">What stands out</text>
<circle cx="1020" cy="496" r="8" fill="#2563eb" opacity="1.0"/>
<text x="1044" y="500" font-family="'DM Sans','Inter','Segoe UI',sans-serif" font-size="18" font-weight="700" fill="#0f172a">Elixir, Kotlin, and C#</text>
<text x="1044" y="524" font-family="'DM Sans','Inter','Segoe UI',sans-serif" font-size="18" font-weight="400" fill="#475569">form the clear top tier.</text>
<circle cx="1020" cy="556" r="8" fill="#2563eb" opacity="1.0"/>
<text x="1044" y="560" font-family="'DM Sans','Inter','Segoe UI',sans-serif" font-size="18" font-weight="700" fill="#0f172a">Ruby and Julia keep</text>
<text x="1044" y="584" font-family="'DM Sans','Inter','Segoe UI',sans-serif" font-size="18" font-weight="400" fill="#475569">the strong tier broad.</text>
<circle cx="1020" cy="616" r="8" fill="#2563eb" opacity="1.0"/>
<text x="1044" y="620" font-family="'DM Sans','Inter','Segoe UI',sans-serif" font-size="18" font-weight="700" fill="#0f172a">TypeScript with Effect</text>
<text x="1044" y="644" font-family="'DM Sans','Inter','Segoe UI',sans-serif" font-size="18" font-weight="400" fill="#475569">lands in the capable band.</text>
<circle cx="1020" cy="676" r="8" fill="#2563eb" opacity="1.0"/>
<text x="1044" y="680" font-family="'DM Sans','Inter','Segoe UI',sans-serif" font-size="18" font-weight="700" fill="#0f172a">Lean4 and Gleam are included,</text>
<text x="1044" y="704" font-family="'DM Sans','Inter','Segoe UI',sans-serif" font-size="18" font-weight="400" fill="#475569">but still trail the pack.</text>
<circle cx="1020" cy="736" r="8" fill="#2563eb" opacity="1.0"/>
<text x="1044" y="740" font-family="'DM Sans','Inter','Segoe UI',sans-serif" font-size="18" font-weight="700" fill="#0f172a">Every non-FULL row stays tagged</text>
<text x="1044" y="764" font-family="'DM Sans','Inter','Segoe UI',sans-serif" font-size="18" font-weight="400" fill="#475569">so the basis stays explicit.</text>
<text x="78" y="932" font-family="'DM Sans','Inter','Segoe UI',sans-serif" font-size="17" font-weight="400" fill="#475569">Basis tags: FULL = ACB-Full language, VALIDATED = translated slice after canonical validation, SLICE = translated slice without that gate.</text>
</svg>