<svg xmlns="http://www.w3.org/2000/svg" width="1120" height="520" viewBox="0 0 1120 520">
<rect width="100%" height="100%" fill="#f8fafc"/>
<rect x="20" y="20" width="1080" height="480" rx="28" fill="#ffffff" stroke="#dbe4f0" stroke-width="1"/>
<text x="40" y="48" font-family="Inter,Arial,sans-serif" font-size="30" font-weight="700" fill="#1f2937">Extension Language Slices</text>
<text x="40" y="76" font-family="Inter,Arial,sans-serif" font-size="16" font-weight="normal" fill="#475569">Fork-only translated benchmark slices. Gleam and Lean4 are reported on canonical-validated translated subsets.</text>
<line x1="180.0" y1="110" x2="180.0" y2="480" stroke="#e2e8f0" stroke-width="1"/>
<text x="170" y="102" font-family="Inter,Arial,sans-serif" font-size="12" font-weight="normal" fill="#64748b">0%</text>
<line x1="306.6666666666667" y1="110" x2="306.6666666666667" y2="480" stroke="#e2e8f0" stroke-width="1"/>
<text x="296" y="102" font-family="Inter,Arial,sans-serif" font-size="12" font-weight="normal" fill="#64748b">10%</text>
<line x1="433.33333333333337" y1="110" x2="433.33333333333337" y2="480" stroke="#e2e8f0" stroke-width="1"/>
<text x="423" y="102" font-family="Inter,Arial,sans-serif" font-size="12" font-weight="normal" fill="#64748b">20%</text>
<line x1="560.0" y1="110" x2="560.0" y2="480" stroke="#e2e8f0" stroke-width="1"/>
<text x="550" y="102" font-family="Inter,Arial,sans-serif" font-size="12" font-weight="normal" fill="#64748b">30%</text>
<line x1="686.6666666666667" y1="110" x2="686.6666666666667" y2="480" stroke="#e2e8f0" stroke-width="1"/>
<text x="676" y="102" font-family="Inter,Arial,sans-serif" font-size="12" font-weight="normal" fill="#64748b">40%</text>
<line x1="813.3333333333334" y1="110" x2="813.3333333333334" y2="480" stroke="#e2e8f0" stroke-width="1"/>
<text x="803" y="102" font-family="Inter,Arial,sans-serif" font-size="12" font-weight="normal" fill="#64748b">50%</text>
<line x1="940.0" y1="110" x2="940.0" y2="480" stroke="#e2e8f0" stroke-width="1"/>
<text x="930" y="102" font-family="Inter,Arial,sans-serif" font-size="12" font-weight="normal" fill="#64748b">60%</text>
<text x="40" y="138" font-family="Inter,Arial,sans-serif" font-size="18" font-weight="700" fill="#1f2937">typescript_effect</text>
<text x="40" y="162" font-family="Inter,Arial,sans-serif" font-size="13" font-weight="normal" fill="#64748b">legacy extension run</text>
<rect x="180" y="120" width="760" height="28" rx="14" fill="#e2e8f0"/>
<rect x="180" y="120" width="678.9" height="28" rx="14" fill="#7c3aed"/>
<text x="960" y="140" font-family="Inter,Arial,sans-serif" font-size="14" font-weight="normal" fill="#1f2937">105/196  (53.6%)</text>
<text x="40" y="243" font-family="Inter,Arial,sans-serif" font-size="18" font-weight="700" fill="#1f2937">gleam</text>
<text x="40" y="267" font-family="Inter,Arial,sans-serif" font-size="13" font-weight="normal" fill="#64748b">validated 122/196</text>
<rect x="180" y="225" width="760" height="28" rx="14" fill="#e2e8f0"/>
<rect x="180" y="225" width="259.7" height="28" rx="14" fill="#0f766e"/>
<text x="960" y="245" font-family="Inter,Arial,sans-serif" font-size="14" font-weight="normal" fill="#1f2937">25/122  (20.5%)</text>
<text x="40" y="348" font-family="Inter,Arial,sans-serif" font-size="18" font-weight="700" fill="#1f2937">lean4</text>
<text x="40" y="372" font-family="Inter,Arial,sans-serif" font-size="13" font-weight="normal" fill="#64748b">validated 125/196</text>
<rect x="180" y="330" width="760" height="28" rx="14" fill="#e2e8f0"/>
<rect x="180" y="330" width="364.8" height="28" rx="14" fill="#2563eb"/>
<text x="960" y="350" font-family="Inter,Arial,sans-serif" font-size="14" font-weight="normal" fill="#1f2937">36/125  (28.8%)</text>
</svg>