<svg xmlns="http://www.w3.org/2000/svg" width="1280" height="860" viewBox="0 0 1280 860">
<rect width="100%" height="100%" fill="#f8fafc"/>
<text x="40" y="48" font-family="Inter,Arial,sans-serif" font-size="30" font-weight="700" fill="#1f2937">GPT-5.4 Medium on ACB-Full</text>
<text x="40" y="76" font-family="Inter,Arial,sans-serif" font-size="16" font-weight="normal" fill="#475569">Corrected local run on 3,920 problems across 20 languages. Overall: 53.3% pass@1.</text>
<line x1="230.0" y1="90" x2="230.0" y2="820" stroke="#e2e8f0" stroke-width="1"/>
<text x="220" y="82" font-family="Inter,Arial,sans-serif" font-size="12" font-weight="normal" fill="#64748b">0%</text>
<line x1="394.0" y1="90" x2="394.0" y2="820" stroke="#e2e8f0" stroke-width="1"/>
<text x="384" y="82" font-family="Inter,Arial,sans-serif" font-size="12" font-weight="normal" fill="#64748b">20%</text>
<line x1="558.0" y1="90" x2="558.0" y2="820" stroke="#e2e8f0" stroke-width="1"/>
<text x="548" y="82" font-family="Inter,Arial,sans-serif" font-size="12" font-weight="normal" fill="#64748b">40%</text>
<line x1="722.0" y1="90" x2="722.0" y2="820" stroke="#e2e8f0" stroke-width="1"/>
<text x="712" y="82" font-family="Inter,Arial,sans-serif" font-size="12" font-weight="normal" fill="#64748b">60%</text>
<line x1="886.0" y1="90" x2="886.0" y2="820" stroke="#e2e8f0" stroke-width="1"/>
<text x="876" y="82" font-family="Inter,Arial,sans-serif" font-size="12" font-weight="normal" fill="#64748b">80%</text>
<line x1="1050.0" y1="90" x2="1050.0" y2="820" stroke="#e2e8f0" stroke-width="1"/>
<text x="1040" y="82" font-family="Inter,Arial,sans-serif" font-size="12" font-weight="normal" fill="#64748b">100%</text>
<text x="40" y="120" font-family="Inter,Arial,sans-serif" font-size="15" font-weight="600" fill="#1f2937">elixir</text>
<rect x="230" y="100" width="820" height="20" rx="10" fill="#e2e8f0"/>
<rect x="230" y="100" width="820.0" height="20" rx="10" fill="#0f766e"/>
<text x="1068" y="116" font-family="Inter,Arial,sans-serif" font-size="13" font-weight="normal" fill="#334155">173/198  (87.4%)</text>
<text x="40" y="154" font-family="Inter,Arial,sans-serif" font-size="15" font-weight="600" fill="#1f2937">kotlin</text>
<rect x="230" y="134" width="820" height="20" rx="10" fill="#e2e8f0"/>
<rect x="230" y="134" width="717.7" height="20" rx="10" fill="#0f766e"/>
<text x="1068" y="150" font-family="Inter,Arial,sans-serif" font-size="13" font-weight="normal" fill="#334155">153/200  (76.5%)</text>
<text x="40" y="188" font-family="Inter,Arial,sans-serif" font-size="15" font-weight="600" fill="#1f2937">csharp</text>
<rect x="230" y="168" width="820" height="20" rx="10" fill="#e2e8f0"/>
<rect x="230" y="168" width="679.3" height="20" rx="10" fill="#0f766e"/>
<text x="1068" y="184" font-family="Inter,Arial,sans-serif" font-size="13" font-weight="normal" fill="#334155">144/199  (72.4%)</text>
<text x="40" y="222" font-family="Inter,Arial,sans-serif" font-size="15" font-weight="600" fill="#1f2937">ruby</text>
<rect x="230" y="202" width="820" height="20" rx="10" fill="#e2e8f0"/>
<rect x="230" y="202" width="591.1" height="20" rx="10" fill="#0f766e"/>
<text x="1068" y="218" font-family="Inter,Arial,sans-serif" font-size="13" font-weight="normal" fill="#334155">126/200  (63.0%)</text>
<text x="40" y="256" font-family="Inter,Arial,sans-serif" font-size="15" font-weight="600" fill="#1f2937">julia</text>
<rect x="230" y="236" width="820" height="20" rx="10" fill="#e2e8f0"/>
<rect x="230" y="236" width="534.8" height="20" rx="10" fill="#2563eb"/>
<text x="1068" y="252" font-family="Inter,Arial,sans-serif" font-size="13" font-weight="normal" fill="#334155">114/200  (57.0%)</text>
<text x="40" y="290" font-family="Inter,Arial,sans-serif" font-size="15" font-weight="600" fill="#1f2937">dart</text>
<rect x="230" y="270" width="820" height="20" rx="10" fill="#e2e8f0"/>
<rect x="230" y="270" width="530.1" height="20" rx="10" fill="#2563eb"/>
<text x="1068" y="286" font-family="Inter,Arial,sans-serif" font-size="13" font-weight="normal" fill="#334155">113/200  (56.5%)</text>
<text x="40" y="324" font-family="Inter,Arial,sans-serif" font-size="15" font-weight="600" fill="#1f2937">r</text>
<rect x="230" y="304" width="820" height="20" rx="10" fill="#e2e8f0"/>
<rect x="230" y="304" width="511.3" height="20" rx="10" fill="#2563eb"/>
<text x="1068" y="320" font-family="Inter,Arial,sans-serif" font-size="13" font-weight="normal" fill="#334155">108/198  (54.5%)</text>
<text x="40" y="358" font-family="Inter,Arial,sans-serif" font-size="15" font-weight="600" fill="#1f2937">java</text>
<rect x="230" y="338" width="820" height="20" rx="10" fill="#e2e8f0"/>
<rect x="230" y="338" width="479.4" height="20" rx="10" fill="#2563eb"/>
<text x="1068" y="354" font-family="Inter,Arial,sans-serif" font-size="13" font-weight="normal" fill="#334155">96/188  (51.1%)</text>
<text x="40" y="392" font-family="Inter,Arial,sans-serif" font-size="15" font-weight="600" fill="#1f2937">racket</text>
<rect x="230" y="372" width="820" height="20" rx="10" fill="#e2e8f0"/>
<rect x="230" y="372" width="478.5" height="20" rx="10" fill="#2563eb"/>
<text x="1068" y="388" font-family="Inter,Arial,sans-serif" font-size="13" font-weight="normal" fill="#334155">100/196  (51.0%)</text>
<text x="40" y="426" font-family="Inter,Arial,sans-serif" font-size="15" font-weight="600" fill="#1f2937">scala</text>
<rect x="230" y="406" width="820" height="20" rx="10" fill="#e2e8f0"/>
<rect x="230" y="406" width="476.6" height="20" rx="10" fill="#2563eb"/>
<text x="1068" y="422" font-family="Inter,Arial,sans-serif" font-size="13" font-weight="normal" fill="#334155">101/199  (50.8%)</text>
<text x="40" y="460" font-family="Inter,Arial,sans-serif" font-size="15" font-weight="600" fill="#1f2937">shell</text>
<rect x="230" y="440" width="820" height="20" rx="10" fill="#e2e8f0"/>
<rect x="230" y="440" width="473.8" height="20" rx="10" fill="#2563eb"/>
<text x="1068" y="456" font-family="Inter,Arial,sans-serif" font-size="13" font-weight="normal" fill="#334155">95/188  (50.5%)</text>
<text x="40" y="494" font-family="Inter,Arial,sans-serif" font-size="15" font-weight="600" fill="#1f2937">cpp</text>
<rect x="230" y="474" width="820" height="20" rx="10" fill="#e2e8f0"/>
<rect x="230" y="474" width="469.1" height="20" rx="10" fill="#2563eb"/>
<text x="1068" y="490" font-family="Inter,Arial,sans-serif" font-size="13" font-weight="normal" fill="#334155">93/186  (50.0%)</text>
<text x="40" y="528" font-family="Inter,Arial,sans-serif" font-size="15" font-weight="600" fill="#1f2937">typescript</text>
<rect x="230" y="508" width="820" height="20" rx="10" fill="#e2e8f0"/>
<rect x="230" y="508" width="461.6" height="20" rx="10" fill="#d97706"/>
<text x="1068" y="524" font-family="Inter,Arial,sans-serif" font-size="13" font-weight="normal" fill="#334155">98/199  (49.2%)</text>
<text x="40" y="562" font-family="Inter,Arial,sans-serif" font-size="15" font-weight="600" fill="#1f2937">perl</text>
<rect x="230" y="542" width="820" height="20" rx="10" fill="#e2e8f0"/>
<rect x="230" y="542" width="417.5" height="20" rx="10" fill="#d97706"/>
<text x="1068" y="558" font-family="Inter,Arial,sans-serif" font-size="13" font-weight="normal" fill="#334155">89/200  (44.5%)</text>
<text x="40" y="596" font-family="Inter,Arial,sans-serif" font-size="15" font-weight="600" fill="#1f2937">python</text>
<rect x="230" y="576" width="820" height="20" rx="10" fill="#e2e8f0"/>
<rect x="230" y="576" width="411.9" height="20" rx="10" fill="#d97706"/>
<text x="1068" y="592" font-family="Inter,Arial,sans-serif" font-size="13" font-weight="normal" fill="#334155">86/196  (43.9%)</text>
<text x="40" y="630" font-family="Inter,Arial,sans-serif" font-size="15" font-weight="600" fill="#1f2937">swift</text>
<rect x="230" y="610" width="820" height="20" rx="10" fill="#e2e8f0"/>
<rect x="230" y="610" width="408.1" height="20" rx="10" fill="#d97706"/>
<text x="1068" y="626" font-family="Inter,Arial,sans-serif" font-size="13" font-weight="normal" fill="#334155">87/200  (43.5%)</text>
<text x="40" y="664" font-family="Inter,Arial,sans-serif" font-size="15" font-weight="600" fill="#1f2937">go</text>
<rect x="230" y="644" width="820" height="20" rx="10" fill="#e2e8f0"/>
<rect x="230" y="644" width="402.5" height="20" rx="10" fill="#d97706"/>
<text x="1068" y="660" font-family="Inter,Arial,sans-serif" font-size="13" font-weight="normal" fill="#334155">82/191  (42.9%)</text>
<text x="40" y="698" font-family="Inter,Arial,sans-serif" font-size="15" font-weight="600" fill="#1f2937">javascript</text>
<rect x="230" y="678" width="820" height="20" rx="10" fill="#e2e8f0"/>
<rect x="230" y="678" width="402.5" height="20" rx="10" fill="#d97706"/>
<text x="1068" y="694" font-family="Inter,Arial,sans-serif" font-size="13" font-weight="normal" fill="#334155">79/184  (42.9%)</text>
<text x="40" y="732" font-family="Inter,Arial,sans-serif" font-size="15" font-weight="600" fill="#1f2937">rust</text>
<rect x="230" y="712" width="820" height="20" rx="10" fill="#e2e8f0"/>
<rect x="230" y="712" width="377.2" height="20" rx="10" fill="#d97706"/>
<text x="1068" y="728" font-family="Inter,Arial,sans-serif" font-size="13" font-weight="normal" fill="#334155">80/199  (40.2%)</text>
<text x="40" y="766" font-family="Inter,Arial,sans-serif" font-size="15" font-weight="600" fill="#1f2937">php</text>
<rect x="230" y="746" width="820" height="20" rx="10" fill="#e2e8f0"/>
<rect x="230" y="746" width="334.9" height="20" rx="10" fill="#d97706"/>
<text x="1068" y="762" font-family="Inter,Arial,sans-serif" font-size="13" font-weight="normal" fill="#334155">71/199  (35.7%)</text>
</svg>